<mxfile host="app.diagrams.net" agent="Mozilla/5.0 (Macintosh; Intel Mac OS X 10_15_7) AppleWebKit/537.36 (KHTML, like Gecko) Chrome/135.0.0.0 Safari/537.36" version="26.2.5">
  <diagram name="Page-1" id="9rzFHxVo04gkikQ2L6n5">
    <mxGraphModel dx="1437" dy="879" grid="1" gridSize="10" guides="1" tooltips="1" connect="1" arrows="1" fold="1" page="1" pageScale="1" pageWidth="1169" pageHeight="827" math="0" shadow="0">
      <root>
        <mxCell id="0" />
        <mxCell id="1" parent="0" />
        <mxCell id="_gMilfSK1ICZod7JZKOL-1" value="Shop Parts&amp;nbsp;&lt;div&gt;Room Clerk&lt;/div&gt;" style="shape=cube;whiteSpace=wrap;html=1;boundedLbl=1;backgroundOutline=1;darkOpacity=0.05;darkOpacity2=0.1;" vertex="1" parent="1">
          <mxGeometry x="120" y="80" width="120" height="100" as="geometry" />
        </mxCell>
        <mxCell id="_gMilfSK1ICZod7JZKOL-2" value="4&lt;div&gt;Record Receipt of Component&lt;/div&gt;" style="rounded=1;whiteSpace=wrap;html=1;" vertex="1" parent="1">
          <mxGeometry x="465" y="80" width="120" height="150" as="geometry" />
        </mxCell>
        <mxCell id="_gMilfSK1ICZod7JZKOL-3" value="Inventory Department" style="shape=cube;whiteSpace=wrap;html=1;boundedLbl=1;backgroundOutline=1;darkOpacity=0.05;darkOpacity2=0.1;" vertex="1" parent="1">
          <mxGeometry x="690" y="240" width="120" height="100" as="geometry" />
        </mxCell>
        <mxCell id="_gMilfSK1ICZod7JZKOL-8" value="" style="endArrow=classic;html=1;rounded=0;entryX=-0.025;entryY=0.61;entryDx=0;entryDy=0;entryPerimeter=0;exitX=0.5;exitY=1;exitDx=0;exitDy=0;" edge="1" parent="1" source="_gMilfSK1ICZod7JZKOL-2" target="_gMilfSK1ICZod7JZKOL-3">
          <mxGeometry relative="1" as="geometry">
            <mxPoint x="600" y="270" as="sourcePoint" />
            <mxPoint x="640" y="410" as="targetPoint" />
            <Array as="points">
              <mxPoint x="525" y="301" />
            </Array>
          </mxGeometry>
        </mxCell>
        <mxCell id="_gMilfSK1ICZod7JZKOL-10" value="&lt;p style=&quot;margin: 0px; font-variant-numeric: normal; font-variant-east-asian: normal; font-variant-alternates: normal; font-size-adjust: none; font-kerning: auto; font-optical-sizing: auto; font-feature-settings: normal; font-variation-settings: normal; font-variant-position: normal; font-variant-emoji: normal; font-stretch: normal; line-height: normal; text-wrap-mode: wrap;&quot; class=&quot;p1&quot;&gt;&lt;font style=&quot;font-size: 12px;&quot;&gt;Rejected parts&lt;/font&gt;&lt;/p&gt;" style="edgeLabel;html=1;align=center;verticalAlign=middle;resizable=0;points=[];" vertex="1" connectable="0" parent="_gMilfSK1ICZod7JZKOL-8">
          <mxGeometry x="-0.04" y="-4" relative="1" as="geometry">
            <mxPoint x="34" as="offset" />
          </mxGeometry>
        </mxCell>
        <mxCell id="_gMilfSK1ICZod7JZKOL-11" value="" style="endArrow=none;html=1;rounded=0;entryX=-0.006;entryY=0.202;entryDx=0;entryDy=0;entryPerimeter=0;startArrow=classic;startFill=1;" edge="1" parent="1" target="_gMilfSK1ICZod7JZKOL-2">
          <mxGeometry relative="1" as="geometry">
            <mxPoint x="240" y="110" as="sourcePoint" />
            <mxPoint x="340" y="110" as="targetPoint" />
          </mxGeometry>
        </mxCell>
        <mxCell id="_gMilfSK1ICZod7JZKOL-15" value="" style="endArrow=none;html=1;rounded=0;entryX=-0.006;entryY=0.202;entryDx=0;entryDy=0;entryPerimeter=0;startArrow=classic;startFill=1;" edge="1" parent="1">
          <mxGeometry relative="1" as="geometry">
            <mxPoint x="241" y="170" as="sourcePoint" />
            <mxPoint x="465" y="170" as="targetPoint" />
          </mxGeometry>
        </mxCell>
        <mxCell id="_gMilfSK1ICZod7JZKOL-17" value="" style="endArrow=classic;html=1;rounded=0;entryX=-0.006;entryY=0.202;entryDx=0;entryDy=0;entryPerimeter=0;startArrow=none;startFill=0;endFill=1;" edge="1" parent="1">
          <mxGeometry relative="1" as="geometry">
            <mxPoint x="241" y="140" as="sourcePoint" />
            <mxPoint x="465" y="140" as="targetPoint" />
          </mxGeometry>
        </mxCell>
        <mxCell id="_gMilfSK1ICZod7JZKOL-18" value="&lt;p style=&quot;margin: 0px; font-variant-numeric: normal; font-variant-east-asian: normal; font-variant-alternates: normal; font-size-adjust: none; font-kerning: auto; font-optical-sizing: auto; font-feature-settings: normal; font-variation-settings: normal; font-variant-position: normal; font-variant-emoji: normal; font-stretch: normal; line-height: normal; text-align: start;&quot; class=&quot;p1&quot;&gt;&lt;font&gt;Part Request Record&lt;/font&gt;&lt;/p&gt;" style="text;html=1;align=center;verticalAlign=middle;whiteSpace=wrap;rounded=0;labelBackgroundColor=default;" vertex="1" parent="1">
          <mxGeometry x="290" y="90" width="129" height="30" as="geometry" />
        </mxCell>
        <mxCell id="_gMilfSK1ICZod7JZKOL-20" value="" style="endArrow=classic;html=1;rounded=0;entryX=-0.006;entryY=0.202;entryDx=0;entryDy=0;entryPerimeter=0;startArrow=none;startFill=0;exitX=0.801;exitY=0.996;exitDx=0;exitDy=0;exitPerimeter=0;endFill=1;" edge="1" parent="1" source="_gMilfSK1ICZod7JZKOL-1">
          <mxGeometry relative="1" as="geometry">
            <mxPoint x="180" y="210" as="sourcePoint" />
            <mxPoint x="464" y="210" as="targetPoint" />
            <Array as="points">
              <mxPoint x="216" y="210" />
            </Array>
          </mxGeometry>
        </mxCell>
        <mxCell id="_gMilfSK1ICZod7JZKOL-21" value="&lt;p style=&quot;margin: 0px; font-variant-numeric: normal; font-variant-east-asian: normal; font-variant-alternates: normal; font-size-adjust: none; font-kerning: auto; font-optical-sizing: auto; font-feature-settings: normal; font-variation-settings: normal; font-variant-position: normal; font-variant-emoji: normal; font-stretch: normal; line-height: normal; text-align: start;&quot; class=&quot;p1&quot;&gt;Parts Storage L&lt;span style=&quot;background-color: light-dark(#ffffff, var(--ge-dark-color, #121212)); color: light-dark(rgb(0, 0, 0), rgb(255, 255, 255));&quot;&gt;ocation&lt;/span&gt;&lt;/p&gt;" style="text;html=1;align=center;verticalAlign=middle;whiteSpace=wrap;rounded=0;labelBackgroundColor=default;" vertex="1" parent="1">
          <mxGeometry x="266" y="120" width="170" height="30" as="geometry" />
        </mxCell>
        <mxCell id="_gMilfSK1ICZod7JZKOL-26" value="&lt;p class=&quot;p1&quot; style=&quot;margin: 0px; font-variant-numeric: normal; font-variant-east-asian: normal; font-variant-alternates: normal; font-size-adjust: none; font-kerning: auto; font-optical-sizing: auto; font-feature-settings: normal; font-variation-settings: normal; font-variant-position: normal; font-variant-emoji: normal; font-stretch: normal; line-height: normal; text-align: start;&quot;&gt;Part Request Complete Status&lt;/p&gt;" style="text;html=1;align=center;verticalAlign=middle;whiteSpace=wrap;rounded=0;labelBackgroundColor=default;" vertex="1" parent="1">
          <mxGeometry x="236" y="154" width="250" height="30" as="geometry" />
        </mxCell>
        <mxCell id="_gMilfSK1ICZod7JZKOL-13" value="&lt;p class=&quot;p1&quot; style=&quot;margin: 0px; font-variant-numeric: normal; font-variant-east-asian: normal; font-variant-alternates: normal; font-size-adjust: none; font-kerning: auto; font-optical-sizing: auto; font-feature-settings: normal; font-variation-settings: normal; font-variant-position: normal; font-variant-emoji: normal; font-stretch: normal; line-height: normal; text-align: start;&quot;&gt;&lt;font&gt;Part Request ID&lt;/font&gt;&lt;/p&gt;" style="text;html=1;align=center;verticalAlign=middle;whiteSpace=wrap;rounded=0;labelBackgroundColor=default;" vertex="1" parent="1">
          <mxGeometry x="290" y="190" width="100" height="30" as="geometry" />
        </mxCell>
        <mxCell id="_gMilfSK1ICZod7JZKOL-27" value="" style="rounded=0;whiteSpace=wrap;html=1;" vertex="1" parent="1">
          <mxGeometry x="800" y="120" width="150" height="30" as="geometry" />
        </mxCell>
        <mxCell id="_gMilfSK1ICZod7JZKOL-28" value="" style="endArrow=classic;html=1;rounded=0;startArrow=none;startFill=0;endFill=1;" edge="1" parent="1">
          <mxGeometry relative="1" as="geometry">
            <mxPoint x="585" y="134.63" as="sourcePoint" />
            <mxPoint x="800" y="135" as="targetPoint" />
          </mxGeometry>
        </mxCell>
        <mxCell id="_gMilfSK1ICZod7JZKOL-23" value="&lt;p class=&quot;p1&quot; style=&quot;margin: 0px; font-variant-numeric: normal; font-variant-east-asian: normal; font-variant-alternates: normal; font-size-adjust: none; font-kerning: auto; font-optical-sizing: auto; font-feature-settings: normal; font-variation-settings: normal; font-variant-position: normal; font-variant-emoji: normal; font-stretch: normal; line-height: normal; text-align: start;&quot;&gt;&lt;font&gt;Updated Parts Request&lt;/font&gt;&lt;/p&gt;" style="text;html=1;align=center;verticalAlign=middle;whiteSpace=wrap;rounded=0;labelBackgroundColor=default;" vertex="1" parent="1">
          <mxGeometry x="610" y="121" width="152" height="30" as="geometry" />
        </mxCell>
        <mxCell id="_gMilfSK1ICZod7JZKOL-29" value="&lt;p class=&quot;p1&quot; style=&quot;margin: 0px; font-variant-numeric: normal; font-variant-east-asian: normal; font-variant-alternates: normal; font-size-adjust: none; font-kerning: auto; font-optical-sizing: auto; font-feature-settings: normal; font-variation-settings: normal; font-variant-position: normal; font-variant-emoji: normal; font-stretch: normal; line-height: normal; text-align: start;&quot;&gt;&lt;font&gt;Parts Request&lt;/font&gt;&lt;/p&gt;" style="text;html=1;align=center;verticalAlign=middle;whiteSpace=wrap;rounded=0;labelBackgroundColor=default;" vertex="1" parent="1">
          <mxGeometry x="810" y="121" width="152" height="30" as="geometry" />
        </mxCell>
        <mxCell id="_gMilfSK1ICZod7JZKOL-30" value="" style="endArrow=none;html=1;rounded=0;" edge="1" parent="1">
          <mxGeometry width="50" height="50" relative="1" as="geometry">
            <mxPoint x="830" y="150" as="sourcePoint" />
            <mxPoint x="830" y="120" as="targetPoint" />
          </mxGeometry>
        </mxCell>
        <mxCell id="_gMilfSK1ICZod7JZKOL-31" value="&lt;p class=&quot;p1&quot; style=&quot;margin: 0px; font-variant-numeric: normal; font-variant-east-asian: normal; font-variant-alternates: normal; font-size-adjust: none; font-kerning: auto; font-optical-sizing: auto; font-feature-settings: normal; font-variation-settings: normal; font-variant-position: normal; font-variant-emoji: normal; font-stretch: normal; line-height: normal; text-align: start;&quot;&gt;&lt;font&gt;D5&lt;/font&gt;&lt;/p&gt;" style="text;html=1;align=center;verticalAlign=middle;whiteSpace=wrap;rounded=0;labelBackgroundColor=default;" vertex="1" parent="1">
          <mxGeometry x="805" y="121" width="20" height="30" as="geometry" />
        </mxCell>
        <mxCell id="_gMilfSK1ICZod7JZKOL-32" value="Shop Parts&amp;nbsp;&lt;div&gt;Room Clerk&lt;/div&gt;" style="shape=cube;whiteSpace=wrap;html=1;boundedLbl=1;backgroundOutline=1;darkOpacity=0.05;darkOpacity2=0.1;" vertex="1" parent="1">
          <mxGeometry x="108" y="430" width="120" height="100" as="geometry" />
        </mxCell>
        <mxCell id="_gMilfSK1ICZod7JZKOL-33" value="5&lt;div&gt;Finalize Parts Request&lt;/div&gt;" style="rounded=1;whiteSpace=wrap;html=1;" vertex="1" parent="1">
          <mxGeometry x="453" y="430" width="120" height="150" as="geometry" />
        </mxCell>
        <mxCell id="_gMilfSK1ICZod7JZKOL-34" value="Shop Technician" style="shape=cube;whiteSpace=wrap;html=1;boundedLbl=1;backgroundOutline=1;darkOpacity=0.05;darkOpacity2=0.1;" vertex="1" parent="1">
          <mxGeometry x="678" y="590" width="120" height="100" as="geometry" />
        </mxCell>
        <mxCell id="_gMilfSK1ICZod7JZKOL-35" value="" style="endArrow=classic;html=1;rounded=0;entryX=-0.025;entryY=0.61;entryDx=0;entryDy=0;entryPerimeter=0;exitX=0.5;exitY=1;exitDx=0;exitDy=0;" edge="1" parent="1" source="_gMilfSK1ICZod7JZKOL-33" target="_gMilfSK1ICZod7JZKOL-34">
          <mxGeometry relative="1" as="geometry">
            <mxPoint x="588" y="620" as="sourcePoint" />
            <mxPoint x="628" y="760" as="targetPoint" />
            <Array as="points">
              <mxPoint x="513" y="651" />
            </Array>
          </mxGeometry>
        </mxCell>
        <mxCell id="_gMilfSK1ICZod7JZKOL-38" value="" style="endArrow=none;html=1;rounded=0;entryX=-0.006;entryY=0.202;entryDx=0;entryDy=0;entryPerimeter=0;startArrow=classic;startFill=1;" edge="1" parent="1" target="_gMilfSK1ICZod7JZKOL-33">
          <mxGeometry relative="1" as="geometry">
            <mxPoint x="228" y="460" as="sourcePoint" />
            <mxPoint x="328" y="460" as="targetPoint" />
          </mxGeometry>
        </mxCell>
        <mxCell id="_gMilfSK1ICZod7JZKOL-39" value="" style="endArrow=none;html=1;rounded=0;entryX=-0.006;entryY=0.202;entryDx=0;entryDy=0;entryPerimeter=0;startArrow=classic;startFill=1;" edge="1" parent="1">
          <mxGeometry relative="1" as="geometry">
            <mxPoint x="229" y="520" as="sourcePoint" />
            <mxPoint x="453" y="520" as="targetPoint" />
          </mxGeometry>
        </mxCell>
        <mxCell id="_gMilfSK1ICZod7JZKOL-40" value="" style="endArrow=classic;html=1;rounded=0;entryX=-0.006;entryY=0.202;entryDx=0;entryDy=0;entryPerimeter=0;startArrow=none;startFill=0;endFill=1;" edge="1" parent="1">
          <mxGeometry relative="1" as="geometry">
            <mxPoint x="229" y="490" as="sourcePoint" />
            <mxPoint x="453" y="490" as="targetPoint" />
          </mxGeometry>
        </mxCell>
        <mxCell id="_gMilfSK1ICZod7JZKOL-41" value="&lt;p style=&quot;margin: 0px; font-variant-numeric: normal; font-variant-east-asian: normal; font-variant-alternates: normal; font-size-adjust: none; font-kerning: auto; font-optical-sizing: auto; font-feature-settings: normal; font-variation-settings: normal; font-variant-position: normal; font-variant-emoji: normal; font-stretch: normal; line-height: normal; text-align: start;&quot; class=&quot;p1&quot;&gt;&lt;font&gt;Part Request Record&lt;/font&gt;&lt;/p&gt;" style="text;html=1;align=center;verticalAlign=middle;whiteSpace=wrap;rounded=0;labelBackgroundColor=default;" vertex="1" parent="1">
          <mxGeometry x="278" y="440" width="129" height="30" as="geometry" />
        </mxCell>
        <mxCell id="_gMilfSK1ICZod7JZKOL-43" value="&lt;p style=&quot;margin: 0px; font-variant-numeric: normal; font-variant-east-asian: normal; font-variant-alternates: normal; font-size-adjust: none; font-kerning: auto; font-optical-sizing: auto; font-feature-settings: normal; font-variation-settings: normal; font-variant-position: normal; font-variant-emoji: normal; font-stretch: normal; line-height: normal; text-align: start;&quot; class=&quot;p1&quot;&gt;Final Parts Verification&lt;/p&gt;" style="text;html=1;align=center;verticalAlign=middle;whiteSpace=wrap;rounded=0;labelBackgroundColor=default;" vertex="1" parent="1">
          <mxGeometry x="254" y="470" width="170" height="30" as="geometry" />
        </mxCell>
        <mxCell id="_gMilfSK1ICZod7JZKOL-45" value="&lt;p class=&quot;p1&quot; style=&quot;margin: 0px; font-variant-numeric: normal; font-variant-east-asian: normal; font-variant-alternates: normal; font-size-adjust: none; font-kerning: auto; font-optical-sizing: auto; font-feature-settings: normal; font-variation-settings: normal; font-variant-position: normal; font-variant-emoji: normal; font-stretch: normal; line-height: normal; text-align: start;&quot;&gt;&lt;font&gt;Shop Work Order&lt;/font&gt;&lt;/p&gt;" style="text;html=1;align=center;verticalAlign=middle;whiteSpace=wrap;rounded=0;labelBackgroundColor=default;" vertex="1" parent="1">
          <mxGeometry x="270" y="507" width="138" height="30" as="geometry" />
        </mxCell>
        <mxCell id="_gMilfSK1ICZod7JZKOL-46" value="" style="rounded=0;whiteSpace=wrap;html=1;" vertex="1" parent="1">
          <mxGeometry x="788" y="470" width="150" height="30" as="geometry" />
        </mxCell>
        <mxCell id="_gMilfSK1ICZod7JZKOL-47" value="" style="endArrow=none;html=1;rounded=0;startArrow=classic;startFill=1;endFill=1;" edge="1" parent="1">
          <mxGeometry relative="1" as="geometry">
            <mxPoint x="573" y="484.63" as="sourcePoint" />
            <mxPoint x="788" y="485" as="targetPoint" />
          </mxGeometry>
        </mxCell>
        <mxCell id="_gMilfSK1ICZod7JZKOL-49" value="&lt;p class=&quot;p1&quot; style=&quot;margin: 0px; font-variant-numeric: normal; font-variant-east-asian: normal; font-variant-alternates: normal; font-size-adjust: none; font-kerning: auto; font-optical-sizing: auto; font-feature-settings: normal; font-variation-settings: normal; font-variant-position: normal; font-variant-emoji: normal; font-stretch: normal; line-height: normal; text-align: start;&quot;&gt;&lt;font&gt;Parts Request&lt;/font&gt;&lt;/p&gt;" style="text;html=1;align=center;verticalAlign=middle;whiteSpace=wrap;rounded=0;labelBackgroundColor=default;" vertex="1" parent="1">
          <mxGeometry x="798" y="471" width="152" height="30" as="geometry" />
        </mxCell>
        <mxCell id="_gMilfSK1ICZod7JZKOL-50" value="" style="endArrow=none;html=1;rounded=0;" edge="1" parent="1">
          <mxGeometry width="50" height="50" relative="1" as="geometry">
            <mxPoint x="818" y="500" as="sourcePoint" />
            <mxPoint x="818" y="470" as="targetPoint" />
          </mxGeometry>
        </mxCell>
        <mxCell id="_gMilfSK1ICZod7JZKOL-51" value="&lt;p class=&quot;p1&quot; style=&quot;margin: 0px; font-variant-numeric: normal; font-variant-east-asian: normal; font-variant-alternates: normal; font-size-adjust: none; font-kerning: auto; font-optical-sizing: auto; font-feature-settings: normal; font-variation-settings: normal; font-variant-position: normal; font-variant-emoji: normal; font-stretch: normal; line-height: normal; text-align: start;&quot;&gt;&lt;font&gt;D5&lt;/font&gt;&lt;/p&gt;" style="text;html=1;align=center;verticalAlign=middle;whiteSpace=wrap;rounded=0;labelBackgroundColor=default;" vertex="1" parent="1">
          <mxGeometry x="793" y="471" width="20" height="30" as="geometry" />
        </mxCell>
        <mxCell id="_gMilfSK1ICZod7JZKOL-52" value="" style="rounded=0;whiteSpace=wrap;html=1;" vertex="1" parent="1">
          <mxGeometry x="762" y="530" width="150" height="30" as="geometry" />
        </mxCell>
        <mxCell id="_gMilfSK1ICZod7JZKOL-53" value="&lt;p class=&quot;p1&quot; style=&quot;margin: 0px; font-variant-numeric: normal; font-variant-east-asian: normal; font-variant-alternates: normal; font-size-adjust: none; font-kerning: auto; font-optical-sizing: auto; font-feature-settings: normal; font-variation-settings: normal; font-variant-position: normal; font-variant-emoji: normal; font-stretch: normal; line-height: normal; text-align: start;&quot;&gt;&lt;font&gt;Shop Work Orders&lt;/font&gt;&lt;/p&gt;" style="text;html=1;align=center;verticalAlign=middle;whiteSpace=wrap;rounded=0;labelBackgroundColor=default;" vertex="1" parent="1">
          <mxGeometry x="772" y="531" width="152" height="30" as="geometry" />
        </mxCell>
        <mxCell id="_gMilfSK1ICZod7JZKOL-54" value="" style="endArrow=none;html=1;rounded=0;" edge="1" parent="1">
          <mxGeometry width="50" height="50" relative="1" as="geometry">
            <mxPoint x="792" y="560" as="sourcePoint" />
            <mxPoint x="792" y="530" as="targetPoint" />
          </mxGeometry>
        </mxCell>
        <mxCell id="_gMilfSK1ICZod7JZKOL-55" value="&lt;p class=&quot;p1&quot; style=&quot;margin: 0px; font-variant-numeric: normal; font-variant-east-asian: normal; font-variant-alternates: normal; font-size-adjust: none; font-kerning: auto; font-optical-sizing: auto; font-feature-settings: normal; font-variation-settings: normal; font-variant-position: normal; font-variant-emoji: normal; font-stretch: normal; line-height: normal; text-align: start;&quot;&gt;&lt;font&gt;D4&lt;/font&gt;&lt;/p&gt;" style="text;html=1;align=center;verticalAlign=middle;whiteSpace=wrap;rounded=0;labelBackgroundColor=default;" vertex="1" parent="1">
          <mxGeometry x="767" y="531" width="20" height="30" as="geometry" />
        </mxCell>
        <mxCell id="_gMilfSK1ICZod7JZKOL-56" value="&lt;p class=&quot;p1&quot; style=&quot;margin: 0px; font-variant-numeric: normal; font-variant-east-asian: normal; font-variant-alternates: normal; font-size-adjust: none; font-kerning: auto; font-optical-sizing: auto; font-feature-settings: normal; font-variation-settings: normal; font-variant-position: normal; font-variant-emoji: normal; font-stretch: normal; line-height: normal; text-align: start;&quot;&gt;Work Order Ready&lt;/p&gt;&lt;p class=&quot;p1&quot; style=&quot;margin: 0px; font-variant-numeric: normal; font-variant-east-asian: normal; font-variant-alternates: normal; font-size-adjust: none; font-kerning: auto; font-optical-sizing: auto; font-feature-settings: normal; font-variation-settings: normal; font-variant-position: normal; font-variant-emoji: normal; font-stretch: normal; line-height: normal; text-align: start;&quot;&gt;Notice&lt;/p&gt;" style="text;html=1;align=center;verticalAlign=middle;whiteSpace=wrap;rounded=0;labelBackgroundColor=default;" vertex="1" parent="1">
          <mxGeometry x="518" y="639" width="152" height="30" as="geometry" />
        </mxCell>
        <mxCell id="_gMilfSK1ICZod7JZKOL-57" value="" style="endArrow=none;html=1;rounded=0;startArrow=classic;startFill=1;entryX=0.25;entryY=1;entryDx=0;entryDy=0;" edge="1" parent="1" target="_gMilfSK1ICZod7JZKOL-31">
          <mxGeometry relative="1" as="geometry">
            <mxPoint x="585" y="180" as="sourcePoint" />
            <mxPoint x="850" y="180" as="targetPoint" />
            <Array as="points">
              <mxPoint x="810" y="180" />
            </Array>
          </mxGeometry>
        </mxCell>
        <mxCell id="_gMilfSK1ICZod7JZKOL-58" value="&lt;p class=&quot;p1&quot; style=&quot;margin: 0px; font-variant-numeric: normal; font-variant-east-asian: normal; font-variant-alternates: normal; font-size-adjust: none; font-kerning: auto; font-optical-sizing: auto; font-feature-settings: normal; font-variation-settings: normal; font-variant-position: normal; font-variant-emoji: normal; font-stretch: normal; line-height: normal; text-align: start;&quot;&gt;&lt;font&gt;Parts Request&lt;/font&gt;&lt;/p&gt;" style="text;html=1;align=center;verticalAlign=middle;whiteSpace=wrap;rounded=0;labelBackgroundColor=default;" vertex="1" parent="1">
          <mxGeometry x="623" y="160" width="152" height="30" as="geometry" />
        </mxCell>
        <mxCell id="_gMilfSK1ICZod7JZKOL-60" value="&lt;p class=&quot;p1&quot; style=&quot;margin: 0px; font-variant-numeric: normal; font-variant-east-asian: normal; font-variant-alternates: normal; font-size-adjust: none; font-kerning: auto; font-optical-sizing: auto; font-feature-settings: normal; font-variation-settings: normal; font-variant-position: normal; font-variant-emoji: normal; font-stretch: normal; line-height: normal; text-align: start;&quot;&gt;&lt;font&gt;Parts Request&lt;/font&gt;&lt;/p&gt;" style="text;html=1;align=center;verticalAlign=middle;whiteSpace=wrap;rounded=0;labelBackgroundColor=default;" vertex="1" parent="1">
          <mxGeometry x="597" y="465" width="152" height="30" as="geometry" />
        </mxCell>
        <mxCell id="_gMilfSK1ICZod7JZKOL-61" value="" style="endArrow=none;html=1;rounded=0;startArrow=classic;startFill=1;endFill=1;entryX=0.643;entryY=-0.039;entryDx=0;entryDy=0;entryPerimeter=0;" edge="1" parent="1" target="_gMilfSK1ICZod7JZKOL-55">
          <mxGeometry relative="1" as="geometry">
            <mxPoint x="572" y="514.63" as="sourcePoint" />
            <mxPoint x="787" y="515" as="targetPoint" />
            <Array as="points">
              <mxPoint x="780" y="515" />
            </Array>
          </mxGeometry>
        </mxCell>
        <mxCell id="_gMilfSK1ICZod7JZKOL-62" value="&lt;p class=&quot;p1&quot; style=&quot;margin: 0px; font-variant-numeric: normal; font-variant-east-asian: normal; font-variant-alternates: normal; font-size-adjust: none; font-kerning: auto; font-optical-sizing: auto; font-feature-settings: normal; font-variation-settings: normal; font-variant-position: normal; font-variant-emoji: normal; font-stretch: normal; line-height: normal; text-align: start;&quot;&gt;&lt;font&gt;Shop Work Order&lt;/font&gt;&lt;/p&gt;" style="text;html=1;align=center;verticalAlign=middle;whiteSpace=wrap;rounded=0;labelBackgroundColor=default;" vertex="1" parent="1">
          <mxGeometry x="596" y="495" width="152" height="30" as="geometry" />
        </mxCell>
        <mxCell id="_gMilfSK1ICZod7JZKOL-63" value="" style="endArrow=none;html=1;rounded=0;entryX=0.999;entryY=0.738;entryDx=0;entryDy=0;entryPerimeter=0;startArrow=classic;startFill=1;" edge="1" parent="1" target="_gMilfSK1ICZod7JZKOL-33">
          <mxGeometry width="50" height="50" relative="1" as="geometry">
            <mxPoint x="762" y="540" as="sourcePoint" />
            <mxPoint x="710" y="540" as="targetPoint" />
          </mxGeometry>
        </mxCell>
        <mxCell id="_gMilfSK1ICZod7JZKOL-64" value="&lt;p class=&quot;p1&quot; style=&quot;margin: 0px; font-variant-numeric: normal; font-variant-east-asian: normal; font-variant-alternates: normal; font-size-adjust: none; font-kerning: auto; font-optical-sizing: auto; font-feature-settings: normal; font-variation-settings: normal; font-variant-position: normal; font-variant-emoji: normal; font-stretch: normal; line-height: normal; text-align: start;&quot;&gt;&lt;font&gt;Shop work order record&lt;/font&gt;&lt;/p&gt;" style="text;html=1;align=center;verticalAlign=middle;whiteSpace=wrap;rounded=0;labelBackgroundColor=default;" vertex="1" parent="1">
          <mxGeometry x="596" y="525" width="152" height="30" as="geometry" />
        </mxCell>
        <mxCell id="_gMilfSK1ICZod7JZKOL-65" value="&lt;h1 style=&quot;margin-top: 0px;&quot;&gt;DFD Fragments&lt;/h1&gt;" style="text;html=1;whiteSpace=wrap;overflow=hidden;rounded=0;" vertex="1" parent="1">
          <mxGeometry x="200" y="280" width="180" height="120" as="geometry" />
        </mxCell>
      </root>
    </mxGraphModel>
  </diagram>
</mxfile>
